<svg xmlns="http://www.w3.org/2000/svg" viewBox="0 0 810.24 617.38"><defs><style>.cls-1,.cls-2{fill:none;}.cls-1,.cls-2,.cls-3,.cls-4{stroke:#000;}.cls-1{stroke-miterlimit:5;}.cls-1,.cls-2,.cls-3{stroke-width:25px;}.cls-2,.cls-3{stroke-linejoin:round;}.cls-4{stroke-miterlimit:10;}</style></defs><g id="图层_2" data-name="图层 2"><path class="cls-1" d="M779,131.08H73.75c-22,0-40,17-40,37.7v517c0,20.74,18,37.71,40,37.71H779c22,0,40-17,40-37.71v-517C819,148.05,801,131.08,779,131.08Z" transform="translate(-21.26 -118.58)"/></g><g id="图层_3" data-name="图层 3"><path d="M241.77,413.07H109.08a12.5,12.5,0,1,1,0-25H241.77a12.5,12.5,0,1,1,0,25Z" transform="translate(-21.26 -118.58)"/><line class="cls-2" x1="278.24" y1="339.26" x2="278.24" y2="564.64"/><path class="cls-2" d="M312.44,184.73H156.37a57.7,57.7,0,0,0-57.73,57.73V683.22" transform="translate(-21.26 -118.58)"/><path class="cls-2" d="M299.5,458.3a57.7,57.7,0,0,0-57.73-57.73" transform="translate(-21.26 -118.58)"/><path class="cls-2" d="M759.23,683.22V458.3a57.73,57.73,0,1,0-115.46,0V612.63a57.73,57.73,0,1,1-115.45,0V458.3a58.15,58.15,0,0,0-22.2-45.52,57.5,57.5,0,0,0-52.31-9.6,60.29,60.29,0,0,0-28,19.08" transform="translate(-21.26 -118.58)"/><path class="cls-3" d="M299.5,572.87,425.79,422.26Z" transform="translate(-21.26 -118.58)"/><line class="cls-3" x1="286.66" y1="437.14" x2="403.14" y2="534.88"/><polygon class="cls-4" points="418.68 564.64 289.48 456.22 306.13 436.38 458.99 564.64 418.68 564.64"/></g><g id="图层_4" data-name="图层 4"><path d="M501.22,354.12,398.3,251.78,417.09,234l92.33,113.46Z" transform="translate(-21.26 -118.58)"/><path d="M495.28,334.33,608.47,231.22l22.28,26.43q-63.53,44-127,88Z" transform="translate(-21.26 -118.58)"/><path d="M732.23,354.12l-86.34-86.64,24.53-22.28,72.24,100.34Z" transform="translate(-21.26 -118.58)"/><path d="M422.72,266l-37.16,2.46a3.82,3.82,0,0,1-3.43-1.69l-20.71-30.95a3.82,3.82,0,0,1-.25-3.82l16.45-33.41a3.82,3.82,0,0,1,3.18-2.13L418,194a3.82,3.82,0,0,1,3.44,1.69l20.71,30.95a3.84,3.84,0,0,1,.25,3.82l-16.45,33.41A3.84,3.84,0,0,1,422.72,266Z" transform="translate(-21.26 -118.58)"/><path d="M509.31,357.54H487.75a3.78,3.78,0,0,1-3.28-1.89L473.69,337a3.76,3.76,0,0,1,0-3.78l10.78-18.67a3.78,3.78,0,0,1,3.28-1.89h21.56a3.77,3.77,0,0,1,3.27,1.89l10.78,18.67a3.76,3.76,0,0,1,0,3.78l-10.78,18.67A3.77,3.77,0,0,1,509.31,357.54Z" transform="translate(-21.26 -118.58)"/><path d="M739.31,357.32l-14.85,1a2.48,2.48,0,0,1-2.2-1.08L714,344.85a2.45,2.45,0,0,1-.16-2.44l6.58-13.36a2.45,2.45,0,0,1,2-1.36l14.86-1a2.42,2.42,0,0,1,2.19,1.08l8.28,12.37a2.44,2.44,0,0,1,.16,2.45L741.35,356A2.44,2.44,0,0,1,739.31,357.32Z" transform="translate(-21.26 -118.58)"/><path d="M698.26,265.68,651.9,292.45a8.91,8.91,0,0,1-8.88,0l-46.36-26.77a8.88,8.88,0,0,1-4.44-7.69V204.45a8.88,8.88,0,0,1,4.44-7.69L643,170a8.91,8.91,0,0,1,8.88,0l46.36,26.77a8.88,8.88,0,0,1,4.44,7.69V258A8.88,8.88,0,0,1,698.26,265.68Z" transform="translate(-21.26 -118.58)"/></g></svg>